HIERARCHY
ROOT Hips
{
    OFFSET 0.000000 0.000000 0.000000
    CHANNELS 6 Xposition Yposition Zposition Zrotation Xrotation Yrotation
    JOINT Spine
    {
        OFFSET -0.000000 7.979263 0.000000
        CHANNELS 3 Zrotation Xrotation Yrotation
        JOINT Spine1
        {
            OFFSET -0.000000 24.719021 0.000000
            CHANNELS 3 Zrotation Xrotation Yrotation
            JOINT Neck
            {
                OFFSET -0.000000 24.617504 2.237955
                CHANNELS 3 Zrotation Xrotation Yrotation
                JOINT Head
                {
                    OFFSET -0.000000 13.623132 -1.946162
                    CHANNELS 3 Zrotation Xrotation Yrotation
                    End Site
                    {
                        OFFSET -0.000000 24.327021 0.000000
                    }
                }
            }
            JOINT LeftShoulder
            {
                OFFSET 3.885773 23.018444 -0.302444
                CHANNELS 3 Zrotation Xrotation Yrotation
                JOINT LeftArm
                {
                    OFFSET 10.447750 0.000000 0.000000
                    CHANNELS 3 Zrotation Xrotation Yrotation
                    JOINT LeftForeArm
                    {
                        OFFSET 29.090096 0.000000 0.000000
                        CHANNELS 3 Zrotation Xrotation Yrotation
                        JOINT LeftHand
                        {
                            OFFSET 28.893339 0.000000 0.000000
                            CHANNELS 3 Zrotation Xrotation Yrotation
                            End Site
                            {
                                OFFSET 14.596213 0.000000 0.000000
                            }
                        }
                    }
                }
            }
            JOINT RightShoulder
            {
                OFFSET -3.864586 23.018444 -0.302444
                CHANNELS 3 Zrotation Xrotation Yrotation
                JOINT RightArm
                {
                    OFFSET -10.447750 0.000000 0.000000
                    CHANNELS 3 Zrotation Xrotation Yrotation
                    JOINT RightForeArm
                    {
                        OFFSET -29.090096 0.000000 0.000000
                        CHANNELS 3 Zrotation Xrotation Yrotation
                        JOINT RightHand
                        {
                            OFFSET -28.893339 0.000000 0.000000
                            CHANNELS 3 Zrotation Xrotation Yrotation
                            End Site
                            {
                                OFFSET -14.596213 0.000000 0.000000
                            }
                        }
                    }
                }
            }
        }
    }
    JOINT LeftUpLeg
    {
        OFFSET 9.730808 0.000000 0.000000
        CHANNELS 3 Zrotation Xrotation Yrotation
        JOINT LeftLeg
        {
            OFFSET -0.000000 -34.800129 0.000000
            CHANNELS 3 Zrotation Xrotation Yrotation
            JOINT LeftFoot
            {
                OFFSET -0.000000 -44.597416 0.000000
                CHANNELS 3 Zrotation Xrotation Yrotation
                JOINT LeftToeBase
                {
                    OFFSET -0.000000 -6.325025 14.596213
                    CHANNELS 3 Zrotation Xrotation Yrotation
                    End Site
                    {
                        OFFSET -0.000000 0.000000 3.892323
                    }
                }
            }
        }
    }
    JOINT RightUpLeg
    {
        OFFSET -9.730808 0.000000 0.000000
        CHANNELS 3 Zrotation Xrotation Yrotation
        JOINT RightLeg
        {
            OFFSET -0.000000 -34.800129 0.000000
            CHANNELS 3 Zrotation Xrotation Yrotation
            JOINT RightFoot
            {
                OFFSET -0.000000 -44.597416 0.000000
                CHANNELS 3 Zrotation Xrotation Yrotation
                JOINT RightToeBase
                {
                    OFFSET -0.000000 -6.325025 14.596213
                    CHANNELS 3 Zrotation Xrotation Yrotation
                    End Site
                    {
                        OFFSET -0.000000 0.000000 3.892323
                    }
                }
            }
        }
    }
}
MOTION
Frames:    8
Frame Time:    0.008333
5.540215    93.914169    66.870407    -0.535753    16.100950    90.309097    -9.379473    -0.469616    -2.614007    18.580282    -26.684820    1.868035    -21.649395    13.064884    5.250769    10.906636    0.196521    7.657608    3.877863    4.446515    -12.528808    43.744267    -12.797673    -37.433945    22.937517    -9.375445    -15.690804    30.428690    -8.149516    -7.210778    -2.221915    13.944945    12.995209    72.502869    55.945694    -6.772538    8.270983    -13.536077    3.977666    12.758894    -14.066915    -2.315186    -0.246899    -6.957107    -9.324154    -1.691347    9.853738    23.648930    -19.305737    50.047531    13.429155    0.000000    0.000000    0.000000    -20.041676    6.949140    -16.822634    4.714069    2.460796    -11.118650    14.966304    13.133124    -1.508566    0.000000    0.000000    0.000000    
5.563677    94.019363    66.916862    -0.632432    15.936506    90.748528    -9.561884    -0.639028    -2.629900    18.766911    -26.629896    1.902886    -21.409821    13.020557    4.972078    10.618519    0.264574    7.322919    4.010214    4.944746    -12.779615    44.066532    -13.394678    -37.804676    23.004421    -10.188911    -15.650586    31.231062    -9.124382    -7.593418    -2.232894    13.787374    12.797601    72.769112    56.479210    -7.153054    8.204382    -13.958905    4.194771    12.646416    -14.516445    -2.474067    -0.141144    -7.084159    -9.334760    -1.549586    9.779672    23.476976    -18.446583    50.736637    12.786203    0.000000    0.000000    0.000000    -19.952196    6.958490    -17.027889    4.780772    2.674932    -10.679870    15.403818    13.364463    -2.001965    0.000000    0.000000    0.000000    
5.596145    94.110641    66.963539    -0.716977    15.816525    91.148949    -9.721763    -0.789248    -2.674341    18.946178    -26.617846    1.913530    -21.544294    12.796762    4.798760    10.710568    0.596080    7.175142    4.023197    4.947351    -12.968490    44.193233    -13.601298    -38.269821    22.818848    -10.516802    -15.655650    32.464371    -9.743954    -8.210766    -2.284759    13.728302    12.781945    72.872452    56.711422    -7.316142    8.165011    -14.129873    4.181927    13.190982    -14.659512    -2.146078    -0.087848    -7.195862    -9.310446    -1.402289    9.732718    23.281105    -18.389162    51.092331    12.719454    0.000000    0.000000    0.000000    -19.901802    6.964666    -17.337667    4.823616    2.874688    -10.613585    15.748644    13.706366    -1.976874    0.000000    0.000000    0.000000    
5.633220    94.180779    67.027885    -0.770592    15.673442    91.558685    -9.830532    -0.892547    -2.767440    19.112976    -26.611362    1.869425    -21.699295    12.747405    4.688437    10.720393    0.642098    7.073025    4.060844    4.417203    -13.102685    44.048176    -13.385293    -38.826607    22.686001    -10.611585    -15.617267    33.349888    -10.042261    -8.577166    -2.097375    13.807223    12.997516    72.561256    56.192207    -7.388377    8.212864    -13.985962    4.196568    13.192826    -14.526852    -2.218976    0.009144    -7.311874    -9.191831    -1.271251    9.740124    22.964741    -19.030319    51.193241    13.145497    0.000000    0.000000    0.000000    -19.809183    7.062210    -17.280073    4.904408    2.970417    -10.725059    16.072741    13.947166    -2.111569    0.000000    0.000000    0.000000    
5.656694    94.234261    67.088364    -0.842194    15.569186    91.918587    -9.911550    -0.970225    -2.844199    19.216694    -26.640617    1.830417    -21.987276    12.664664    4.605106    10.895314    0.667970    7.035165    3.993912    4.558838    -13.050004    44.445820    -13.465471    -38.745186    22.471691    -9.833302    -15.384196    34.959328    -9.454822    -8.529377    -2.334826    13.999504    12.906857    72.353386    56.764248    -6.952882    8.129293    -14.036889    4.300850    13.462504    -14.583334    -2.186954    0.058637    -7.478600    -9.000360    -1.128772    9.813233    22.540583    -18.300043    51.655949    12.652001    0.000000    0.000000    0.000000    -19.742037    7.092485    -17.215857    4.963347    3.064258    -10.869469    16.349077    14.159799    -2.196006    0.000000    0.000000    0.000000    
5.677611    94.262947    67.143181    -0.906177    15.504235    92.203705    -10.017675    -1.022857    -2.873334    19.375105    -26.687574    1.853791    -22.376072    12.647214    4.543098    11.097452    0.569213    7.025290    3.777973    4.750679    -12.966660    45.004593    -13.395398    -38.332199    22.429060    -9.124004    -15.151067    35.622334    -8.731635    -8.155520    -2.471322    14.139008    12.886467    72.012894    56.505695    -6.535532    8.126635    -13.785291    4.243936    13.457480    -14.343658    -2.321897    0.074964    -7.626640    -9.020333    -1.027354    9.923108    22.272144    -18.515274    51.711021    12.819284    0.000000    0.000000    0.000000    -19.697151    7.142592    -17.181177    5.005646    3.092785    -10.959925    16.601690    14.277513    -2.247523    0.000000    0.000000    0.000000    
5.709665    94.275192    67.221260    -0.945493    15.390394    92.486046    -9.967196    -1.082421    -2.920920    19.283339    -26.553791    1.764630    -22.634026    12.263390    4.432436    11.272277    0.614546    7.020909    3.780304    4.653997    -12.572706    45.404209    -13.610433    -37.966160    21.964596    -8.221587    -14.802811    35.950535    -7.878523    -7.824053    -2.629373    13.931013    12.943723    72.106789    56.241901    -6.336873    8.190345    -13.556838    4.020545    13.471435    -14.086156    -2.176691    0.155755    -7.740630    -8.829468    -0.921129    9.964211    21.956442    -18.634384    51.885822    12.966842    0.000000    0.000000    0.000000    -19.572748    7.254486    -17.071041    5.067917    3.091580    -10.939781    16.795406    14.260733    -2.470276    0.000000    0.000000    0.000000    
5.740681    94.271774    67.297852    -0.996729    15.335320    92.685547    -9.975218    -1.155056    -2.954611    19.226587    -26.389439    1.694267    -22.860003    11.887845    4.313905    11.391452    0.578851    7.007148    3.758023    4.500645    -12.049042    45.707268    -13.590059    -37.460030    21.672604    -7.312198    -14.351816    35.492775    -7.072934    -7.863615    -2.733527    13.780018    13.005818    72.162315    56.057171    -6.186068    8.227410    -13.362043    3.888495    13.431756    -13.898693    -2.313056    0.191755    -7.870767    -8.668968    -0.838395    10.064470    21.652529    -18.845467    51.945629    13.186143    0.000000    0.000000    0.000000    -19.501764    7.359881    -16.935513    5.144294    3.014791    -11.012795    17.184320    14.132221    -2.619830    0.000000    0.000000    0.000000    
